<svg width="106" height="26" viewBox="0 0 106 26" fill="none" xmlns="http://www.w3.org/2000/svg">
<path d="M49.9389 6V20H48.4789V13.54H39.7189V20H38.2389V6H39.7189V12.24H48.4789V6H49.9389ZM57.9447 9.4C59.318 9.4 60.3714 9.74667 61.1047 10.44C61.838 11.12 62.2047 12.1333 62.2047 13.48V20H60.8447V18.36C60.5247 18.9067 60.0514 19.3333 59.4247 19.64C58.8114 19.9467 58.078 20.1 57.2247 20.1C56.0514 20.1 55.118 19.82 54.4247 19.26C53.7314 18.7 53.3847 17.96 53.3847 17.04C53.3847 16.1467 53.7047 15.4267 54.3447 14.88C54.998 14.3333 56.0314 14.06 57.4447 14.06H60.7847V13.42C60.7847 12.5133 60.5314 11.8267 60.0247 11.36C59.518 10.88 58.778 10.64 57.8047 10.64C57.138 10.64 56.498 10.7533 55.8847 10.98C55.2714 11.1933 54.7447 11.4933 54.3047 11.88L53.6647 10.82C54.198 10.3667 54.838 10.02 55.5847 9.78C56.3314 9.52667 57.118 9.4 57.9447 9.4ZM57.4447 18.98C58.2447 18.98 58.9314 18.8 59.5047 18.44C60.078 18.0667 60.5047 17.5333 60.7847 16.84V15.12H57.4847C55.6847 15.12 54.7847 15.7467 54.7847 17C54.7847 17.6133 55.018 18.1 55.4847 18.46C55.9514 18.8067 56.6047 18.98 57.4447 18.98ZM70.89 14.52C71.6367 14.6933 72.21 14.9933 72.61 15.42C73.0233 15.8467 73.23 16.3667 73.23 16.98C73.23 17.5933 73.0167 18.14 72.59 18.62C72.1767 19.1 71.61 19.4733 70.89 19.74C70.17 19.9933 69.3767 20.12 68.51 20.12C67.75 20.12 67.0033 20.0133 66.27 19.8C65.5367 19.5733 64.8967 19.2467 64.35 18.82L64.83 17.76C65.31 18.12 65.87 18.4 66.51 18.6C67.15 18.8 67.7967 18.9 68.45 18.9C69.4233 18.9 70.2167 18.72 70.83 18.36C71.4567 17.9867 71.77 17.4867 71.77 16.86C71.77 16.3 71.5167 15.8667 71.01 15.56C70.5033 15.24 69.81 15.08 68.93 15.08H67.13V14.04H68.85C69.6367 14.04 70.27 13.8933 70.75 13.6C71.23 13.2933 71.47 12.8867 71.47 12.38C71.47 11.82 71.1967 11.38 70.65 11.06C70.1167 10.74 69.4167 10.58 68.55 10.58C67.4167 10.58 66.2967 10.8667 65.19 11.44L64.79 10.34C66.0433 9.68667 67.3433 9.36 68.69 9.36C69.49 9.36 70.21 9.48 70.85 9.72C71.5033 9.94667 72.01 10.2733 72.37 10.7C72.7433 11.1267 72.93 11.62 72.93 12.18C72.93 12.7133 72.7433 13.1867 72.37 13.6C72.01 14.0133 71.5167 14.32 70.89 14.52ZM80.0736 9.4C81.4469 9.4 82.5003 9.74667 83.2336 10.44C83.9669 11.12 84.3336 12.1333 84.3336 13.48V20H82.9736V18.36C82.6536 18.9067 82.1803 19.3333 81.5536 19.64C80.9403 19.9467 80.2069 20.1 79.3536 20.1C78.1803 20.1 77.2469 19.82 76.5536 19.26C75.8603 18.7 75.5136 17.96 75.5136 17.04C75.5136 16.1467 75.8336 15.4267 76.4736 14.88C77.1269 14.3333 78.1603 14.06 79.5736 14.06H82.9136V13.42C82.9136 12.5133 82.6603 11.8267 82.1536 11.36C81.6469 10.88 80.9069 10.64 79.9336 10.64C79.2669 10.64 78.6269 10.7533 78.0136 10.98C77.4003 11.1933 76.8736 11.4933 76.4336 11.88L75.7936 10.82C76.3269 10.3667 76.9669 10.02 77.7136 9.78C78.4603 9.52667 79.2469 9.4 80.0736 9.4ZM79.5736 18.98C80.3736 18.98 81.0603 18.8 81.6336 18.44C82.2069 18.0667 82.6336 17.5333 82.9136 16.84V15.12H79.6136C77.8136 15.12 76.9136 15.7467 76.9136 17C76.9136 17.6133 77.1469 18.1 77.6136 18.46C78.0803 18.8067 78.7336 18.98 79.5736 18.98ZM98.3738 18.76V22.54H97.0338V20H87.6138V22.54H86.2738V18.76H86.8738C87.5804 18.72 88.0604 18.2 88.3138 17.2C88.5671 16.2 88.7404 14.8 88.8338 13L88.9738 9.48H96.7338V18.76H98.3738ZM90.1338 13.08C90.0671 14.5733 89.9404 15.8067 89.7538 16.78C89.5671 17.74 89.2338 18.4 88.7538 18.76H95.3138V10.74H90.2538L90.1338 13.08Z" fill="#9B9496"/>
<g clip-path="url(#clip0_1_1796)">
<path d="M11.2739 6.02335L4.33333 13L11.2739 19.9767C11.3366 20.059 11.4162 20.1269 11.5074 20.1757C11.5986 20.2246 11.6992 20.2533 11.8025 20.2599C11.9057 20.2665 12.0092 20.2508 12.1059 20.2139C12.2025 20.1771 12.2902 20.1198 12.3628 20.0462C12.4354 19.9725 12.4914 19.8841 12.5269 19.7869C12.5624 19.6897 12.5766 19.586 12.5685 19.4829C12.5604 19.3797 12.5303 19.2795 12.4801 19.189C12.43 19.0985 12.361 19.0198 12.2778 18.9583L7.085 13.7222H20.9011C21.0927 13.7222 21.2764 13.6461 21.4118 13.5107C21.5472 13.3753 21.6233 13.1916 21.6233 13C21.6233 12.8085 21.5472 12.6248 21.4118 12.4893C21.2764 12.3539 21.0927 12.2778 20.9011 12.2778H7.085L12.2778 7.04168C12.4128 6.90569 12.4883 6.72161 12.4876 6.52996C12.4869 6.33831 12.4102 6.15478 12.2742 6.01974C12.1382 5.8847 11.9541 5.80921 11.7624 5.80989C11.5708 5.81057 11.3873 5.88735 11.2522 6.02335H11.2739Z" fill="#7C7474"/>
</g>
<defs>
<clipPath id="clip0_1_1796">
<rect width="26" height="26" fill="white" transform="matrix(0 -1 1 0 0 26)"/>
</clipPath>
</defs>
</svg>
