<svg width="309" height="42" viewBox="0 0 309 42" fill="none" xmlns="http://www.w3.org/2000/svg">
<path d="M230.568 10.0595C234.84 14.3145 234.84 21.2092 230.568 25.4642C229.002 27.0238 227.079 28.0131 225.059 28.4295C226.283 27.0036 227.889 24.4042 224.638 23.2004C220.457 21.6534 226.219 20.5152 226.572 20.4193C227.405 20.1896 227.334 20.2124 227.469 20.1695C228.432 19.8616 231.201 18.7511 224.963 17.2748C217.984 15.6268 225.581 13.6356 226.08 13.5069C225.512 13.5851 215.463 15.0186 220.847 16.871C225.905 18.6098 223.348 18.8294 222.864 18.8546C222.786 18.8597 222.71 18.8647 222.631 18.8723C221.405 18.9884 213.522 19.8313 216.57 22.2667C218.737 24.0004 216.828 25.0831 215.262 25.6232C215.207 25.5727 215.153 25.5197 215.098 25.4642C210.825 21.2092 210.825 14.3145 215.098 10.0595C219.37 5.80455 226.296 5.80455 230.568 10.0595Z" fill="url(#paint0_linear_2_1880)"/>
<path d="M235.444 5.20387V5.20135C228.48 -1.73378 217.186 -1.73378 210.223 5.20135V5.20387C203.259 12.139 203.259 23.3846 210.223 30.3197L221.152 41.2045C222.079 42.1307 223.587 42.1307 224.514 41.2045L235.444 30.3197C242.407 23.3846 242.407 12.139 235.444 5.20387ZM222.969 33.3911C214.193 33.4668 207.065 26.3651 207.139 17.6255C207.212 9.14084 214.176 2.20571 222.698 2.13253C231.473 2.05934 238.601 9.15851 238.528 17.8981C238.454 26.3828 231.491 33.3179 222.969 33.3911Z" fill="url(#paint1_linear_2_1880)"/>
<path d="M275.236 5.29727L269.912 35.771C269.826 36.2707 269.448 36.6038 268.967 36.6038H263.878C263.397 36.6038 262.92 36.2707 262.68 35.771L252.947 15.5056L249.407 35.771C249.318 36.2707 248.943 36.6038 248.461 36.6038H242.575L247.901 6.12757C247.987 5.6304 248.365 5.29727 248.844 5.29727H253.935C254.414 5.29727 254.893 5.6304 255.133 6.12757L264.869 26.3954L268.407 6.12757C268.495 5.6304 268.87 5.29727 269.352 5.29727H275.236Z" fill="black"/>
<path d="M286.557 5.29727L281.233 35.771C281.144 36.2707 280.767 36.6038 280.288 36.6038H274.401L279.725 6.13009C279.811 5.6304 280.189 5.29727 280.67 5.29727H286.557Z" fill="black"/>
<path d="M308.334 31.1198L307.523 35.771C307.435 36.2707 307.057 36.6038 306.578 36.6038H285.718V36.6013L291.042 6.12757C291.131 5.6304 291.508 5.29727 291.987 5.29727H297.874L293.363 31.1198H308.334Z" fill="black"/>
<path d="M8.48 28.12C7.09333 28.12 5.84 27.8133 4.72 27.2C3.61333 26.5867 2.74 25.74 2.1 24.66C1.47333 23.5667 1.16 22.3467 1.16 21C1.16 19.6533 1.47333 18.44 2.1 17.36C2.74 16.2667 3.62 15.4133 4.74 14.8C5.86 14.1867 7.11333 13.88 8.5 13.88C9.54 13.88 10.5 14.0533 11.38 14.4C12.26 14.7467 13.0067 15.2533 13.62 15.92L12.68 16.86C11.5867 15.7533 10.2067 15.2 8.54 15.2C7.43333 15.2 6.42667 15.4533 5.52 15.96C4.61333 16.4667 3.9 17.16 3.38 18.04C2.87333 18.92 2.62 19.9067 2.62 21C2.62 22.0933 2.87333 23.08 3.38 23.96C3.9 24.84 4.61333 25.5333 5.52 26.04C6.42667 26.5467 7.43333 26.8 8.54 26.8C10.22 26.8 11.6 26.24 12.68 25.12L13.62 26.06C13.0067 26.7267 12.2533 27.24 11.36 27.6C10.48 27.9467 9.52 28.12 8.48 28.12ZM19.8002 17.4C21.1735 17.4 22.2268 17.7467 22.9602 18.44C23.6935 19.12 24.0602 20.1333 24.0602 21.48V28H22.7002V26.36C22.3802 26.9067 21.9068 27.3333 21.2802 27.64C20.6668 27.9467 19.9335 28.1 19.0802 28.1C17.9068 28.1 16.9735 27.82 16.2802 27.26C15.5868 26.7 15.2402 25.96 15.2402 25.04C15.2402 24.1467 15.5602 23.4267 16.2002 22.88C16.8535 22.3333 17.8868 22.06 19.3002 22.06H22.6402V21.42C22.6402 20.5133 22.3868 19.8267 21.8802 19.36C21.3735 18.88 20.6335 18.64 19.6602 18.64C18.9935 18.64 18.3535 18.7533 17.7402 18.98C17.1268 19.1933 16.6002 19.4933 16.1602 19.88L15.5202 18.82C16.0535 18.3667 16.6935 18.02 17.4402 17.78C18.1868 17.5267 18.9735 17.4 19.8002 17.4ZM19.3002 26.98C20.1002 26.98 20.7868 26.8 21.3602 26.44C21.9335 26.0667 22.3602 25.5333 22.6402 24.84V23.12H19.3402C17.5402 23.12 16.6402 23.7467 16.6402 25C16.6402 25.6133 16.8735 26.1 17.3402 26.46C17.8068 26.8067 18.4602 26.98 19.3002 26.98ZM27.8403 17.48H29.2603V25.84L36.2803 17.48H37.5403V28H36.1203V19.64L29.1203 28H27.8403V17.48ZM32.6203 15.96C31.7136 15.96 30.9936 15.7333 30.4603 15.28C29.927 14.8267 29.6536 14.1867 29.6403 13.36H30.6603C30.6736 13.88 30.8603 14.3 31.2203 14.62C31.5803 14.9267 32.047 15.08 32.6203 15.08C33.1936 15.08 33.6603 14.9267 34.0203 14.62C34.3936 14.3 34.587 13.88 34.6003 13.36H35.6203C35.607 14.1867 35.327 14.8267 34.7803 15.28C34.247 15.7333 33.527 15.96 32.6203 15.96ZM49.0098 18.74H45.0298V28H43.6098V18.74H39.6298V17.48H49.0098V18.74ZM61.7173 17.4C62.704 17.4 63.5973 17.6267 64.3973 18.08C65.1973 18.52 65.824 19.1467 66.2773 19.96C66.7307 20.7733 66.9573 21.7 66.9573 22.74C66.9573 23.7933 66.7307 24.7267 66.2773 25.54C65.824 26.3533 65.1973 26.9867 64.3973 27.44C63.6107 27.88 62.7173 28.1 61.7173 28.1C60.864 28.1 60.0907 27.9267 59.3973 27.58C58.7173 27.22 58.1573 26.7 57.7173 26.02V31.88H56.2973V17.48H57.6573V19.56C58.084 18.8667 58.644 18.3333 59.3373 17.96C60.044 17.5867 60.8373 17.4 61.7173 17.4ZM61.6173 26.84C62.3507 26.84 63.0173 26.6733 63.6173 26.34C64.2173 25.9933 64.684 25.5067 65.0173 24.88C65.364 24.2533 65.5373 23.54 65.5373 22.74C65.5373 21.94 65.364 21.2333 65.0173 20.62C64.684 19.9933 64.2173 19.5067 63.6173 19.16C63.0173 18.8133 62.3507 18.64 61.6173 18.64C60.8707 18.64 60.1973 18.8133 59.5973 19.16C59.0107 19.5067 58.544 19.9933 58.1973 20.62C57.864 21.2333 57.6973 21.94 57.6973 22.74C57.6973 23.54 57.864 24.2533 58.1973 24.88C58.544 25.5067 59.0107 25.9933 59.5973 26.34C60.1973 26.6733 60.8707 26.84 61.6173 26.84ZM73.5697 17.4C74.943 17.4 75.9964 17.7467 76.7297 18.44C77.463 19.12 77.8297 20.1333 77.8297 21.48V28H76.4697V26.36C76.1497 26.9067 75.6764 27.3333 75.0497 27.64C74.4364 27.9467 73.703 28.1 72.8497 28.1C71.6764 28.1 70.743 27.82 70.0497 27.26C69.3564 26.7 69.0097 25.96 69.0097 25.04C69.0097 24.1467 69.3297 23.4267 69.9697 22.88C70.623 22.3333 71.6564 22.06 73.0697 22.06H76.4097V21.42C76.4097 20.5133 76.1564 19.8267 75.6497 19.36C75.143 18.88 74.403 18.64 73.4297 18.64C72.763 18.64 72.123 18.7533 71.5097 18.98C70.8964 19.1933 70.3697 19.4933 69.9297 19.88L69.2897 18.82C69.823 18.3667 70.463 18.02 71.2097 17.78C71.9564 17.5267 72.743 17.4 73.5697 17.4ZM73.0697 26.98C73.8697 26.98 74.5564 26.8 75.1297 26.44C75.703 26.0667 76.1297 25.5333 76.4097 24.84V23.12H73.1097C71.3097 23.12 70.4097 23.7467 70.4097 25C70.4097 25.6133 70.643 26.1 71.1097 26.46C71.5764 26.8067 72.2297 26.98 73.0697 26.98ZM86.515 22.52C87.2617 22.6933 87.835 22.9933 88.235 23.42C88.6483 23.8467 88.855 24.3667 88.855 24.98C88.855 25.5933 88.6417 26.14 88.215 26.62C87.8017 27.1 87.235 27.4733 86.515 27.74C85.795 27.9933 85.0017 28.12 84.135 28.12C83.375 28.12 82.6283 28.0133 81.895 27.8C81.1617 27.5733 80.5217 27.2467 79.975 26.82L80.455 25.76C80.935 26.12 81.495 26.4 82.135 26.6C82.775 26.8 83.4217 26.9 84.075 26.9C85.0483 26.9 85.8417 26.72 86.455 26.36C87.0817 25.9867 87.395 25.4867 87.395 24.86C87.395 24.3 87.1417 23.8667 86.635 23.56C86.1283 23.24 85.435 23.08 84.555 23.08H82.755V22.04H84.475C85.2617 22.04 85.895 21.8933 86.375 21.6C86.855 21.2933 87.095 20.8867 87.095 20.38C87.095 19.82 86.8217 19.38 86.275 19.06C85.7417 18.74 85.0417 18.58 84.175 18.58C83.0417 18.58 81.9217 18.8667 80.815 19.44L80.415 18.34C81.6683 17.6867 82.9683 17.36 84.315 17.36C85.115 17.36 85.835 17.48 86.475 17.72C87.1283 17.9467 87.635 18.2733 87.995 18.7C88.3683 19.1267 88.555 19.62 88.555 20.18C88.555 20.7133 88.3683 21.1867 87.995 21.6C87.635 22.0133 87.1417 22.32 86.515 22.52ZM97.4986 17.4C98.4853 17.4 99.3786 17.6267 100.179 18.08C100.979 18.52 101.605 19.1467 102.059 19.96C102.512 20.7733 102.739 21.7 102.739 22.74C102.739 23.7933 102.512 24.7267 102.059 25.54C101.605 26.3533 100.979 26.9867 100.179 27.44C99.3919 27.88 98.4986 28.1 97.4986 28.1C96.6453 28.1 95.8719 27.9267 95.1786 27.58C94.4986 27.22 93.9386 26.7 93.4986 26.02V31.88H92.0786V17.48H93.4386V19.56C93.8653 18.8667 94.4253 18.3333 95.1186 17.96C95.8253 17.5867 96.6186 17.4 97.4986 17.4ZM97.3986 26.84C98.1319 26.84 98.7986 26.6733 99.3986 26.34C99.9986 25.9933 100.465 25.5067 100.799 24.88C101.145 24.2533 101.319 23.54 101.319 22.74C101.319 21.94 101.145 21.2333 100.799 20.62C100.465 19.9933 99.9986 19.5067 99.3986 19.16C98.7986 18.8133 98.1319 18.64 97.3986 18.64C96.6519 18.64 95.9786 18.8133 95.3786 19.16C94.7919 19.5067 94.3253 19.9933 93.9786 20.62C93.6453 21.2333 93.4786 21.94 93.4786 22.74C93.4786 23.54 93.6453 24.2533 93.9786 24.88C94.3253 25.5067 94.7919 25.9933 95.3786 26.34C95.9786 26.6733 96.6519 26.84 97.3986 26.84ZM109.351 17.4C110.724 17.4 111.778 17.7467 112.511 18.44C113.244 19.12 113.611 20.1333 113.611 21.48V28H112.251V26.36C111.931 26.9067 111.458 27.3333 110.831 27.64C110.218 27.9467 109.484 28.1 108.631 28.1C107.458 28.1 106.524 27.82 105.831 27.26C105.138 26.7 104.791 25.96 104.791 25.04C104.791 24.1467 105.111 23.4267 105.751 22.88C106.404 22.3333 107.438 22.06 108.851 22.06H112.191V21.42C112.191 20.5133 111.938 19.8267 111.431 19.36C110.924 18.88 110.184 18.64 109.211 18.64C108.544 18.64 107.904 18.7533 107.291 18.98C106.678 19.1933 106.151 19.4933 105.711 19.88L105.071 18.82C105.604 18.3667 106.244 18.02 106.991 17.78C107.738 17.5267 108.524 17.4 109.351 17.4ZM108.851 26.98C109.651 26.98 110.338 26.8 110.911 26.44C111.484 26.0667 111.911 25.5333 112.191 24.84V23.12H108.891C107.091 23.12 106.191 23.7467 106.191 25C106.191 25.6133 106.424 26.1 106.891 26.46C107.358 26.8067 108.011 26.98 108.851 26.98ZM122.491 17.74C123.464 17.74 124.331 17.96 125.091 18.4C125.864 18.8267 126.464 19.4333 126.891 20.22C127.318 20.9933 127.531 21.88 127.531 22.88C127.531 23.9067 127.304 24.82 126.851 25.62C126.411 26.4067 125.791 27.02 124.991 27.46C124.191 27.9 123.271 28.12 122.231 28.12C120.484 28.12 119.131 27.5067 118.171 26.28C117.211 25.0533 116.731 23.36 116.731 21.2C116.731 18.9467 117.158 17.22 118.011 16.02C118.878 14.82 120.224 14.0067 122.051 13.58L126.771 12.5L127.011 13.8L122.571 14.82C121.064 15.1533 119.958 15.7467 119.251 16.6C118.544 17.44 118.158 18.6867 118.091 20.34C118.518 19.5267 119.111 18.8933 119.871 18.44C120.631 17.9733 121.504 17.74 122.491 17.74ZM122.271 26.94C123.004 26.94 123.658 26.7733 124.231 26.44C124.818 26.0933 125.271 25.6133 125.591 25C125.924 24.3867 126.091 23.6933 126.091 22.92C126.091 22.1467 125.931 21.4667 125.611 20.88C125.291 20.2933 124.838 19.84 124.251 19.52C123.678 19.1867 123.018 19.02 122.271 19.02C121.524 19.02 120.858 19.1867 120.271 19.52C119.698 19.84 119.244 20.2933 118.911 20.88C118.591 21.4667 118.431 22.1467 118.431 22.92C118.431 23.6933 118.591 24.3867 118.911 25C119.244 25.6133 119.704 26.0933 120.291 26.44C120.878 26.7733 121.538 26.94 122.271 26.94ZM134.915 28.1C133.901 28.1 132.988 27.8733 132.175 27.42C131.361 26.9533 130.721 26.3133 130.255 25.5C129.788 24.6867 129.555 23.7667 129.555 22.74C129.555 21.7133 129.788 20.7933 130.255 19.98C130.721 19.1667 131.361 18.5333 132.175 18.08C132.988 17.6267 133.901 17.4 134.915 17.4C135.928 17.4 136.841 17.6267 137.655 18.08C138.468 18.5333 139.101 19.1667 139.555 19.98C140.021 20.7933 140.255 21.7133 140.255 22.74C140.255 23.7667 140.021 24.6867 139.555 25.5C139.101 26.3133 138.468 26.9533 137.655 27.42C136.841 27.8733 135.928 28.1 134.915 28.1ZM134.915 26.84C135.661 26.84 136.328 26.6733 136.915 26.34C137.515 25.9933 137.981 25.5067 138.315 24.88C138.648 24.2533 138.815 23.54 138.815 22.74C138.815 21.94 138.648 21.2267 138.315 20.6C137.981 19.9733 137.515 19.4933 136.915 19.16C136.328 18.8133 135.661 18.64 134.915 18.64C134.168 18.64 133.495 18.8133 132.895 19.16C132.308 19.4933 131.841 19.9733 131.495 20.6C131.161 21.2267 130.995 21.94 130.995 22.74C130.995 23.54 131.161 24.2533 131.495 24.88C131.841 25.5067 132.308 25.9933 132.895 26.34C133.495 26.6733 134.168 26.84 134.915 26.84ZM150.299 18.74H146.319V28H144.899V18.74H140.919V17.48H150.299V18.74ZM155.972 17.4C157.345 17.4 158.399 17.7467 159.132 18.44C159.865 19.12 160.232 20.1333 160.232 21.48V28H158.872V26.36C158.552 26.9067 158.079 27.3333 157.452 27.64C156.839 27.9467 156.105 28.1 155.252 28.1C154.079 28.1 153.145 27.82 152.452 27.26C151.759 26.7 151.412 25.96 151.412 25.04C151.412 24.1467 151.732 23.4267 152.372 22.88C153.025 22.3333 154.059 22.06 155.472 22.06H158.812V21.42C158.812 20.5133 158.559 19.8267 158.052 19.36C157.545 18.88 156.805 18.64 155.832 18.64C155.165 18.64 154.525 18.7533 153.912 18.98C153.299 19.1933 152.772 19.4933 152.332 19.88L151.692 18.82C152.225 18.3667 152.865 18.02 153.612 17.78C154.359 17.5267 155.145 17.4 155.972 17.4ZM155.472 26.98C156.272 26.98 156.959 26.8 157.532 26.44C158.105 26.0667 158.532 25.5333 158.812 24.84V23.12H155.512C153.712 23.12 152.812 23.7467 152.812 25C152.812 25.6133 153.045 26.1 153.512 26.46C153.979 26.8067 154.632 26.98 155.472 26.98ZM164.012 17.48H165.432V22.14H172.052V17.48H173.472V28H172.052V23.36H165.432V28H164.012V17.48ZM189.443 22.56C190.869 22.8933 191.583 23.7533 191.583 25.14C191.583 26.06 191.243 26.7667 190.563 27.26C189.883 27.7533 188.869 28 187.523 28H182.743V17.48H187.383C188.583 17.48 189.523 17.7133 190.203 18.18C190.883 18.6467 191.223 19.3133 191.223 20.18C191.223 20.7533 191.063 21.2467 190.743 21.66C190.436 22.06 190.003 22.36 189.443 22.56ZM184.123 22.16H187.283C188.096 22.16 188.716 22.0067 189.143 21.7C189.583 21.3933 189.803 20.9467 189.803 20.36C189.803 19.7733 189.583 19.3333 189.143 19.04C188.716 18.7467 188.096 18.6 187.283 18.6H184.123V22.16ZM187.463 26.88C188.369 26.88 189.049 26.7333 189.503 26.44C189.956 26.1467 190.183 25.6867 190.183 25.06C190.183 24.4333 189.976 23.9733 189.563 23.68C189.149 23.3733 188.496 23.22 187.603 23.22H184.123V26.88H187.463Z" fill="#898989"/>
<defs>
<linearGradient id="paint0_linear_2_1880" x1="215.098" y1="25.4648" x2="230.504" y2="9.99605" gradientUnits="userSpaceOnUse">
<stop stop-color="#FD4766"/>
<stop offset="0.5" stop-color="#7644FF"/>
<stop offset="1" stop-color="#1C99FE"/>
</linearGradient>
<linearGradient id="paint1_linear_2_1880" x1="210.223" y1="30.3197" x2="235.341" y2="5.09891" gradientUnits="userSpaceOnUse">
<stop stop-color="#FD4766"/>
<stop offset="0.5" stop-color="#7644FF"/>
<stop offset="1" stop-color="#1C99FE"/>
</linearGradient>
</defs>
</svg>
