<svg width="82" height="82" viewBox="0 0 82 82" fill="none" xmlns="http://www.w3.org/2000/svg">
<path d="M20.9524 21.9049C21.4785 21.9049 21.9049 21.4785 21.9049 20.9524C21.9049 20.4264 21.4785 20 20.9524 20C20.4264 20 20 20.4264 20 20.9524C20 21.4785 20.4264 21.9049 20.9524 21.9049Z" fill="#A2A2A2"/>
<path d="M20.9524 61.9049C21.4785 61.9049 21.9049 61.4785 21.9049 60.9524C21.9049 60.4264 21.4785 60 20.9524 60C20.4264 60 20 60.4264 20 60.9524C20 61.4785 20.4264 61.9049 20.9524 61.9049Z" fill="#A2A2A2"/>
<path d="M60.9524 61.9049C61.4785 61.9049 61.9049 61.4785 61.9049 60.9524C61.9049 60.4264 61.4785 60 60.9524 60C60.4264 60 60 60.4264 60 60.9524C60 61.4785 60.4264 61.9049 60.9524 61.9049Z" fill="#A2A2A2"/>
<path d="M60.9524 21.9049C61.4785 21.9049 61.9049 21.4785 61.9049 20.9524C61.9049 20.4264 61.4785 20 60.9524 20C60.4264 20 60 20.4264 60 20.9524C60 21.4785 60.4264 21.9049 60.9524 21.9049Z" fill="#A2A2A2"/>
</svg>
