<svg width="256" height="256" viewBox="0 0 256 256" fill="none" xmlns="http://www.w3.org/2000/svg">
<rect width="256" height="256" rx="30" fill="white"/>
<g clip-path="url(#clip0_97_3383)">
<path d="M197.151 39.9279C158.686 1.35735 96.3142 1.35735 57.849 39.9279C19.3837 78.4985 19.3837 141.041 57.849 179.611L118.214 240.142C123.346 245.288 131.66 245.288 136.792 240.142L197.151 179.611C235.622 141.041 235.622 78.4985 197.151 39.9279ZM128.259 196.688C79.7915 197.099 40.4148 157.621 40.8246 109.015C41.2223 61.8263 79.6875 23.2557 126.748 22.857C175.215 22.446 214.591 61.9245 214.181 110.53C213.778 157.719 175.319 196.284 128.259 196.688Z" fill="black"/>
<path d="M170.217 152.603C161.567 161.277 150.948 166.773 139.796 169.085C146.555 161.166 155.425 146.709 137.465 140.01C114.372 131.404 146.213 125.08 148.146 124.54C152.758 123.258 152.367 123.387 153.101 123.154C158.423 121.443 173.722 115.266 139.264 107.065C99.428 97.5875 145.564 86.0801 145.564 86.0801C145.564 86.0801 85.9272 94.2016 116.532 104.807C144.463 114.487 130.351 115.707 127.665 115.848C127.237 115.873 126.809 115.904 126.387 115.947C119.615 116.585 76.0724 121.277 92.907 134.821C104.872 144.451 94.3385 150.481 85.6887 153.487C85.3828 153.198 85.0831 152.898 84.7833 152.597C61.1891 128.938 61.1891 90.5825 84.7833 66.9298C108.378 43.271 146.629 43.271 170.217 66.9298C193.817 90.5948 193.817 128.951 170.217 152.603Z" fill="black"/>
</g>
<defs>
<clipPath id="clip0_97_3383">
<rect width="197" height="233" fill="white" transform="translate(29 11)"/>
</clipPath>
</defs>
</svg>
