<svg width="227" height="48" viewBox="0 0 227 48" fill="none" xmlns="http://www.w3.org/2000/svg">
<rect width="227" height="48" rx="14" fill="black"/>
<path d="M48.8972 29L45.0809 23.5102L43.6931 25.0816V29H40.8768V15.9388H43.6931V21.3469L48.285 15.9388H51.8768L46.9176 21.4694L52.489 29H48.8972ZM60.3746 19.5918H63.1706L58.4563 30.7959C58.0345 31.7347 57.5447 32.3946 56.9869 32.7755C56.4427 33.1701 55.7964 33.3673 55.0481 33.3673C54.4495 33.3673 53.9325 33.2721 53.4971 33.0816L53.8032 30.9388C54.1297 31.0884 54.4699 31.1633 54.8236 31.1633C55.5039 31.1633 56.0345 30.7075 56.4155 29.7959L56.7624 28.898L52.8032 19.5918H55.5991L57.9869 25.7347L60.3746 19.5918ZM73.4104 19.5918V29H70.7982V21.5918H67.0839V29H64.4513V19.5918H73.4104ZM82.3916 19.5918H84.7998V29H82.2488V23.2857L78.2079 29H75.7794V19.5918H78.3508V25.3061L82.3916 19.5918ZM94.7579 19.5918V21.6939H91.9416V29H89.309V21.6939H86.3702V19.5918H94.7579ZM101.917 22.8367C102.91 22.8367 103.754 23.1224 104.448 23.6939C105.155 24.2653 105.509 25.0136 105.509 25.9388C105.509 26.8367 105.155 27.5714 104.448 28.1429C103.754 28.7143 102.91 29 101.917 29H96.3458V19.5918H98.9376V22.8367H101.917ZM101.142 27.2245C101.7 27.2381 102.128 27.1293 102.427 26.898C102.74 26.6667 102.897 26.3469 102.897 25.9388C102.897 25.517 102.74 25.1905 102.427 24.9592C102.128 24.7279 101.7 24.6122 101.142 24.6122L98.9376 24.6327V27.2245H101.142ZM120.793 19.5918V29H118.181V21.5918H114.467V29H111.834V19.5918H120.793ZM131.57 27.8776C130.604 28.8163 129.359 29.2857 127.836 29.2857C126.312 29.2857 125.067 28.8163 124.101 27.8776C123.135 26.9388 122.652 25.7551 122.652 24.3265C122.652 22.8844 123.135 21.6939 124.101 20.7551C125.067 19.8163 126.312 19.3469 127.836 19.3469C129.359 19.3469 130.604 19.8163 131.57 20.7551C132.536 21.6939 133.019 22.8844 133.019 24.3265C133.019 25.7551 132.536 26.9388 131.57 27.8776ZM126.06 26.3061C126.523 26.8095 127.115 27.0612 127.836 27.0612C128.557 27.0612 129.149 26.8027 129.611 26.2857C130.074 25.7687 130.305 25.1156 130.305 24.3265C130.305 23.5238 130.067 22.8639 129.591 22.3469C129.128 21.8299 128.543 21.5714 127.836 21.5714C127.115 21.5714 126.523 21.8299 126.06 22.3469C125.598 22.8639 125.366 23.5238 125.366 24.3265C125.366 25.1293 125.598 25.7891 126.06 26.3061ZM143.432 26.8163H144.636V31.3469H142.412L142.167 29H136.473L136.228 31.3469H133.963V26.8163H134.779C135.65 25.8776 136.085 24.2313 136.085 21.8776V19.5918H143.432V26.8163ZM140.963 21.7755H138.554V22.5918C138.554 24.2653 138.139 25.6735 137.31 26.8163H140.963V21.7755ZM155.149 19.5918V29H152.536V21.5918H148.822V29H146.19V19.5918H155.149ZM164.13 19.5918H166.538V29H163.987V23.2857L159.946 29H157.518V19.5918H160.089V25.3061L164.13 19.5918ZM173.455 29.2857C171.986 29.2857 170.775 28.8163 169.823 27.8776C168.87 26.9388 168.394 25.7551 168.394 24.3265C168.394 22.898 168.87 21.7143 169.823 20.7755C170.775 19.8231 171.986 19.3469 173.455 19.3469C174.707 19.3469 175.83 19.6939 176.823 20.3878L175.353 22.3469C174.864 21.8571 174.265 21.6122 173.557 21.6122C172.809 21.6122 172.21 21.8639 171.762 22.3673C171.313 22.8707 171.088 23.5238 171.088 24.3265C171.088 25.1293 171.313 25.7823 171.762 26.2857C172.21 26.7755 172.809 27.0204 173.557 27.0204C174.279 27.0204 174.877 26.7823 175.353 26.3061L176.802 28.2449C175.85 28.9388 174.734 29.2857 173.455 29.2857ZM184.708 29L182.034 25.102L180.912 26.2245V29H178.279V19.5918H180.912V22.9388L184.198 19.5918H187.504L183.81 23.3061L188.014 29H184.708ZM195.863 19.5918H198.659L193.945 30.7959C193.523 31.7347 193.033 32.3946 192.475 32.7755C191.931 33.1701 191.285 33.3673 190.536 33.3673C189.938 33.3673 189.421 33.2721 188.985 33.0816L189.291 30.9388C189.618 31.0884 189.958 31.1633 190.312 31.1633C190.992 31.1633 191.523 30.7075 191.904 29.7959L192.251 28.898L188.291 19.5918H191.087L193.475 25.7347L195.863 19.5918Z" fill="white"/>
<rect x="16" y="18" width="12" height="12" rx="6" fill="white"/>
</svg>
