<svg width="227" height="48" viewBox="0 0 227 48" fill="none" xmlns="http://www.w3.org/2000/svg">
<rect width="227" height="48" rx="14" fill="black"/>
<rect width="227" height="48" rx="13" fill="#0500F9"/>
<path d="M32.8972 29L29.0809 23.5102L27.6931 25.0816V29H24.8768V15.9388H27.6931V21.3469L32.285 15.9388H35.8768L30.9176 21.4694L36.489 29H32.8972ZM44.3746 19.5918H47.1706L42.4563 30.7959C42.0345 31.7347 41.5447 32.3946 40.9869 32.7755C40.4427 33.1701 39.7964 33.3673 39.0481 33.3673C38.4495 33.3673 37.9325 33.2721 37.4971 33.0816L37.8032 30.9388C38.1297 31.0884 38.4699 31.1633 38.8236 31.1633C39.5039 31.1633 40.0345 30.7075 40.4155 29.7959L40.7624 28.898L36.8032 19.5918H39.5991L41.9869 25.7347L44.3746 19.5918ZM57.4104 19.5918V29H54.7982V21.5918H51.0839V29H48.4513V19.5918H57.4104ZM66.3916 19.5918H68.7998V29H66.2488V23.2857L62.2079 29H59.7794V19.5918H62.3508V25.3061L66.3916 19.5918ZM78.7579 19.5918V21.6939H75.9416V29H73.309V21.6939H70.3702V19.5918H78.7579ZM85.9172 22.8367C86.9104 22.8367 87.7539 23.1224 88.4478 23.6939C89.1553 24.2653 89.509 25.0136 89.509 25.9388C89.509 26.8367 89.1553 27.5714 88.4478 28.1429C87.7539 28.7143 86.9104 29 85.9172 29H80.3458V19.5918H82.9376V22.8367H85.9172ZM85.1417 27.2245C85.6995 27.2381 86.1281 27.1293 86.4274 26.898C86.7403 26.6667 86.8968 26.3469 86.8968 25.9388C86.8968 25.517 86.7403 25.1905 86.4274 24.9592C86.1281 24.7279 85.6995 24.6122 85.1417 24.6122L82.9376 24.6327V27.2245H85.1417ZM104.793 19.5918V29H102.181V21.5918H98.4667V29H95.8341V19.5918H104.793ZM115.57 27.8776C114.604 28.8163 113.359 29.2857 111.836 29.2857C110.312 29.2857 109.067 28.8163 108.101 27.8776C107.135 26.9388 106.652 25.7551 106.652 24.3265C106.652 22.8844 107.135 21.6939 108.101 20.7551C109.067 19.8163 110.312 19.3469 111.836 19.3469C113.359 19.3469 114.604 19.8163 115.57 20.7551C116.536 21.6939 117.019 22.8844 117.019 24.3265C117.019 25.7551 116.536 26.9388 115.57 27.8776ZM110.06 26.3061C110.523 26.8095 111.115 27.0612 111.836 27.0612C112.557 27.0612 113.149 26.8027 113.611 26.2857C114.074 25.7687 114.305 25.1156 114.305 24.3265C114.305 23.5238 114.067 22.8639 113.591 22.3469C113.128 21.8299 112.543 21.5714 111.836 21.5714C111.115 21.5714 110.523 21.8299 110.06 22.3469C109.598 22.8639 109.366 23.5238 109.366 24.3265C109.366 25.1293 109.598 25.7891 110.06 26.3061ZM127.432 26.8163H128.636V31.3469H126.412L126.167 29H120.473L120.228 31.3469H117.963V26.8163H118.779C119.65 25.8776 120.085 24.2313 120.085 21.8776V19.5918H127.432V26.8163ZM124.963 21.7755H122.554V22.5918C122.554 24.2653 122.139 25.6735 121.31 26.8163H124.963V21.7755ZM139.149 19.5918V29H136.536V21.5918H132.822V29H130.19V19.5918H139.149ZM148.13 19.5918H150.538V29H147.987V23.2857L143.946 29H141.518V19.5918H144.089V25.3061L148.13 19.5918ZM157.455 29.2857C155.986 29.2857 154.775 28.8163 153.823 27.8776C152.87 26.9388 152.394 25.7551 152.394 24.3265C152.394 22.898 152.87 21.7143 153.823 20.7755C154.775 19.8231 155.986 19.3469 157.455 19.3469C158.707 19.3469 159.83 19.6939 160.823 20.3878L159.353 22.3469C158.864 21.8571 158.265 21.6122 157.557 21.6122C156.809 21.6122 156.21 21.8639 155.762 22.3673C155.313 22.8707 155.088 23.5238 155.088 24.3265C155.088 25.1293 155.313 25.7823 155.762 26.2857C156.21 26.7755 156.809 27.0204 157.557 27.0204C158.279 27.0204 158.877 26.7823 159.353 26.3061L160.802 28.2449C159.85 28.9388 158.734 29.2857 157.455 29.2857ZM168.708 29L166.034 25.102L164.912 26.2245V29H162.279V19.5918H164.912V22.9388L168.198 19.5918H171.504L167.81 23.3061L172.014 29H168.708ZM179.863 19.5918H182.659L177.945 30.7959C177.523 31.7347 177.033 32.3946 176.475 32.7755C175.931 33.1701 175.285 33.3673 174.536 33.3673C173.938 33.3673 173.421 33.2721 172.985 33.0816L173.291 30.9388C173.618 31.0884 173.958 31.1633 174.312 31.1633C174.992 31.1633 175.523 30.7075 175.904 29.7959L176.251 28.898L172.291 19.5918H175.087L177.475 25.7347L179.863 19.5918Z" fill="white"/>
<g clip-path="url(#clip0_1_1807)">
<path d="M207.328 29.3666L212.667 24L207.328 18.6333C207.28 18.57 207.218 18.5177 207.148 18.4802C207.078 18.4426 207.001 18.4205 206.921 18.4154C206.842 18.4104 206.762 18.4224 206.688 18.4508C206.614 18.4792 206.546 18.5232 206.49 18.5798C206.434 18.6365 206.391 18.7045 206.364 18.7793C206.337 18.8541 206.326 18.9338 206.332 19.0132C206.338 19.0925 206.361 19.1696 206.4 19.2392C206.439 19.3088 206.492 19.3693 206.556 19.4166L210.55 23.4444H199.922C199.775 23.4444 199.634 23.5029 199.529 23.6071C199.425 23.7113 199.367 23.8526 199.367 24C199.367 24.1473 199.425 24.2886 199.529 24.3928C199.634 24.497 199.775 24.5555 199.922 24.5555H210.55L206.556 28.5833C206.452 28.6879 206.394 28.8295 206.394 28.9769C206.395 29.1243 206.454 29.2655 206.558 29.3694C206.663 29.4733 206.805 29.5313 206.952 29.5308C207.099 29.5303 207.241 29.4712 207.345 29.3666H207.328Z" fill="white"/>
</g>
<defs>
<clipPath id="clip0_1_1807">
<rect width="20" height="20" fill="white" transform="matrix(0 1 -1 0 216 14)"/>
</clipPath>
</defs>
</svg>
