<svg width="205" height="48" viewBox="0 0 205 48" fill="none" xmlns="http://www.w3.org/2000/svg">
<rect width="205" height="48" rx="14" fill="black"/>
<rect width="205" height="48" rx="13" fill="#0500F9"/>
<path d="M37.5299 15.9388V29H34.7136V18.3061H29.5095V29H26.6932V15.9388H37.5299ZM48.5 27.8776C47.5341 28.8163 46.2892 29.2857 44.7653 29.2857C43.2415 29.2857 41.9966 28.8163 41.0307 27.8776C40.0647 26.9388 39.5817 25.7551 39.5817 24.3265C39.5817 22.8844 40.0647 21.6939 41.0307 20.7551C41.9966 19.8163 43.2415 19.3469 44.7653 19.3469C46.2892 19.3469 47.5341 19.8163 48.5 20.7551C49.466 21.6939 49.949 22.8844 49.949 24.3265C49.949 25.7551 49.466 26.9388 48.5 27.8776ZM42.9898 26.3061C43.4524 26.8095 44.0443 27.0612 44.7653 27.0612C45.4864 27.0612 46.0783 26.8027 46.5409 26.2857C47.0034 25.7687 47.2347 25.1156 47.2347 24.3265C47.2347 23.5238 46.9966 22.8639 46.5204 22.3469C46.0579 21.8299 45.4728 21.5714 44.7653 21.5714C44.0443 21.5714 43.4524 21.8299 42.9898 22.3469C42.5273 22.8639 42.296 23.5238 42.296 24.3265C42.296 25.1293 42.5273 25.7891 42.9898 26.3061ZM60.7698 19.5918V29H58.1576V21.5918H54.4433V29H51.8106V19.5918H60.7698ZM68.6898 19.3469C69.9551 19.3469 70.9959 19.7891 71.8122 20.6735C72.6422 21.5578 73.0571 22.7619 73.0571 24.2857C73.0571 25.7959 72.6422 26.9932 71.8122 27.8776C70.9959 28.7619 69.9551 29.2041 68.6898 29.2041C67.5197 29.2041 66.5469 28.8163 65.7714 28.0408V33.2857H63.1388V19.5918H65.4449L65.649 20.6531C66.4245 19.7823 67.4381 19.3469 68.6898 19.3469ZM67.9551 26.9796C68.6626 26.9796 69.2408 26.7347 69.6898 26.2449C70.1388 25.7415 70.3632 25.0884 70.3632 24.2857C70.3632 23.483 70.1388 22.8299 69.6898 22.3265C69.2408 21.8231 68.6626 21.5714 67.9551 21.5714C67.234 21.5714 66.649 21.8231 66.2 22.3265C65.751 22.8299 65.5265 23.483 65.5265 24.2857C65.5265 25.0748 65.751 25.7211 66.2 26.2245C66.649 26.7279 67.234 26.9796 67.9551 26.9796ZM83.3243 27.8776C82.3583 28.8163 81.1134 29.2857 79.5896 29.2857C78.0658 29.2857 76.8209 28.8163 75.8549 27.8776C74.8889 26.9388 74.4059 25.7551 74.4059 24.3265C74.4059 22.8844 74.8889 21.6939 75.8549 20.7551C76.8209 19.8163 78.0658 19.3469 79.5896 19.3469C81.1134 19.3469 82.3583 19.8163 83.3243 20.7551C84.2902 21.6939 84.7732 22.8844 84.7732 24.3265C84.7732 25.7551 84.2902 26.9388 83.3243 27.8776ZM77.8141 26.3061C78.2766 26.8095 78.8685 27.0612 79.5896 27.0612C80.3107 27.0612 80.9025 26.8027 81.3651 26.2857C81.8277 25.7687 82.059 25.1156 82.059 24.3265C82.059 23.5238 81.8209 22.8639 81.3447 22.3469C80.8821 21.8299 80.297 21.5714 79.5896 21.5714C78.8685 21.5714 78.2766 21.8299 77.8141 22.3469C77.3515 22.8639 77.1202 23.5238 77.1202 24.3265C77.1202 25.1293 77.3515 25.7891 77.8141 26.3061ZM91.5168 29.2857C89.5984 29.2857 88.1971 28.5034 87.3127 26.9388C86.6188 25.8095 86.2719 24.3605 86.2719 22.5918C86.2719 20.7279 86.7073 19.2517 87.578 18.1633C88.4624 17.0748 89.544 16.3673 90.8229 16.0408C91.0542 15.9728 91.3671 15.898 91.7617 15.8163C92.1562 15.7211 92.4624 15.6463 92.68 15.5918C92.9113 15.5374 93.1698 15.449 93.4556 15.3265C93.7549 15.2041 94.0202 15.0612 94.2515 14.898L95.476 16.551C95.1358 16.8639 94.7277 17.1088 94.2515 17.2857C93.7889 17.4626 93.2515 17.6122 92.6392 17.7347C92.027 17.8571 91.612 17.9524 91.3943 18.0204C90.646 18.2653 90.027 18.7619 89.5372 19.5102C89.061 20.2585 88.8229 21.1497 88.8229 22.1837C89.5984 21.0408 90.6664 20.4694 92.027 20.4694C93.4147 20.4694 94.4828 20.8912 95.2311 21.7347C95.993 22.5646 96.3739 23.5442 96.3739 24.6735C96.3739 25.966 95.9454 27.0612 95.0882 27.9592C94.2311 28.8435 93.0406 29.2857 91.5168 29.2857ZM91.4351 27.2449C92.1154 27.2449 92.6596 27.0136 93.0678 26.551C93.4896 26.0884 93.7005 25.5034 93.7005 24.7959C93.7005 24.1293 93.4828 23.5714 93.0474 23.1224C92.612 22.6735 92.0746 22.449 91.4351 22.449C90.7957 22.449 90.2583 22.6735 89.8229 23.1224C89.3875 23.5714 89.1698 24.1293 89.1698 24.7959C89.1698 25.5034 89.3807 26.0884 89.8025 26.551C90.2243 27.0136 90.7685 27.2449 91.4351 27.2449ZM106.879 27.8776C105.913 28.8163 104.668 29.2857 103.144 29.2857C101.62 29.2857 100.376 28.8163 99.4096 27.8776C98.4436 26.9388 97.9606 25.7551 97.9606 24.3265C97.9606 22.8844 98.4436 21.6939 99.4096 20.7551C100.376 19.8163 101.62 19.3469 103.144 19.3469C104.668 19.3469 105.913 19.8163 106.879 20.7551C107.845 21.6939 108.328 22.8844 108.328 24.3265C108.328 25.7551 107.845 26.9388 106.879 27.8776ZM101.369 26.3061C101.831 26.8095 102.423 27.0612 103.144 27.0612C103.865 27.0612 104.457 26.8027 104.92 26.2857C105.382 25.7687 105.614 25.1156 105.614 24.3265C105.614 23.5238 105.376 22.8639 104.899 22.3469C104.437 21.8299 103.852 21.5714 103.144 21.5714C102.423 21.5714 101.831 21.8299 101.369 22.3469C100.906 22.8639 100.675 23.5238 100.675 24.3265C100.675 25.1293 100.906 25.7891 101.369 26.3061ZM116.741 23.8163C117.502 23.9252 118.101 24.1973 118.536 24.6327C118.972 25.068 119.19 25.619 119.19 26.2857C119.19 27.1156 118.849 27.7755 118.169 28.2653C117.502 28.7551 116.604 29 115.475 29H110.19V19.5918H115.047C116.053 19.5918 116.849 19.7959 117.434 20.2041C118.019 20.5986 118.312 21.1497 118.312 21.8571C118.312 22.3469 118.169 22.7619 117.883 23.102C117.611 23.4286 117.23 23.6667 116.741 23.8163ZM115.904 22.1837C115.904 21.517 115.482 21.1837 114.639 21.1837H112.618V23.2245H114.577C114.985 23.2245 115.305 23.1361 115.536 22.9592C115.781 22.7687 115.904 22.5102 115.904 22.1837ZM114.945 27.4082C115.434 27.4082 115.829 27.2993 116.128 27.0816C116.441 26.8639 116.598 26.5374 116.598 26.102C116.598 25.6803 116.441 25.3537 116.128 25.1224C115.829 24.8776 115.421 24.7551 114.904 24.7551H112.618V27.4082H114.945ZM124.337 29.2041C123.398 29.2041 122.616 28.9388 121.99 28.4082C121.364 27.8639 121.051 27.1633 121.051 26.3061C121.051 25.1497 121.609 24.2721 122.724 23.6735C123.854 23.0612 125.323 23.0544 127.133 23.6531L127.439 23.7551V23.1633C127.439 21.9796 126.752 21.3878 125.377 21.3878C124.52 21.3878 123.772 21.6463 123.133 22.1633L122.051 20.4286C123.003 19.7075 124.201 19.3469 125.643 19.3469C128.595 19.3469 130.071 20.7483 130.071 23.551V29H127.786L127.439 27.8571C126.772 28.7551 125.738 29.2041 124.337 29.2041ZM125.316 27.3673C125.901 27.3673 126.398 27.1905 126.806 26.8367C127.228 26.4694 127.439 25.9932 127.439 25.4082V25.1837L127.214 25.102C126.071 24.7619 125.221 24.7007 124.663 24.9184C124.105 25.1361 123.826 25.5238 123.826 26.0816C123.826 26.4626 123.962 26.7755 124.235 27.0204C124.507 27.2517 124.867 27.3673 125.316 27.3673ZM139.93 19.5918V21.6939H137.113V29H134.481V21.6939H131.542V19.5918H139.93ZM147.089 22.8367C148.082 22.8367 148.926 23.1224 149.62 23.6939C150.327 24.2653 150.681 25.0136 150.681 25.9388C150.681 26.8367 150.327 27.5714 149.62 28.1429C148.926 28.7143 148.082 29 147.089 29H141.518V19.5918H144.109V22.8367H147.089ZM146.314 27.2245C146.871 27.2381 147.3 27.1293 147.599 26.898C147.912 26.6667 148.069 26.3469 148.069 25.9388C148.069 25.517 147.912 25.1905 147.599 24.9592C147.3 24.7279 146.871 24.6122 146.314 24.6122L144.109 24.6327V27.2245H146.314Z" fill="white"/>
<g clip-path="url(#clip0_1_1819)">
<path d="M183.328 29.3666L188.667 24L183.328 18.6333C183.28 18.57 183.218 18.5177 183.148 18.4802C183.078 18.4426 183.001 18.4205 182.921 18.4154C182.842 18.4104 182.762 18.4224 182.688 18.4508C182.613 18.4792 182.546 18.5232 182.49 18.5798C182.434 18.6365 182.391 18.7045 182.364 18.7793C182.337 18.8541 182.326 18.9338 182.332 19.0132C182.338 19.0925 182.361 19.1696 182.4 19.2392C182.438 19.3088 182.492 19.3693 182.556 19.4166L186.55 23.4444H175.922C175.775 23.4444 175.634 23.5029 175.529 23.6071C175.425 23.7113 175.367 23.8526 175.367 24C175.367 24.1473 175.425 24.2886 175.529 24.3928C175.634 24.497 175.775 24.5555 175.922 24.5555H186.55L182.556 28.5833C182.452 28.6879 182.394 28.8295 182.394 28.9769C182.395 29.1243 182.454 29.2655 182.558 29.3694C182.663 29.4733 182.804 29.5313 182.952 29.5308C183.099 29.5303 183.241 29.4712 183.344 29.3666H183.328Z" fill="white"/>
</g>
<defs>
<clipPath id="clip0_1_1819">
<rect width="20" height="20" fill="white" transform="matrix(0 1 -1 0 192 14)"/>
</clipPath>
</defs>
</svg>
 