<svg width="13" height="13" viewBox="0 0 13 13" fill="none" xmlns="http://www.w3.org/2000/svg">
<path d="M5.401 4.724C5.401 4.16309 5.85573 3.70837 6.41663 3.70837C6.97752 3.70837 7.43225 4.16309 7.43225 4.724C7.43225 5.09637 7.23183 5.42194 6.93305 5.59874C6.67554 5.75105 6.41663 5.98213 6.41663 6.28129V6.95837" stroke="#1C274C" stroke-width="0.96" stroke-linecap="round"/>
<path d="M6.41667 9.12496C6.71582 9.12496 6.95833 8.88245 6.95833 8.58329C6.95833 8.28414 6.71582 8.04163 6.41667 8.04163C6.11751 8.04163 5.875 8.28414 5.875 8.58329C5.875 8.88245 6.11751 9.12496 6.41667 9.12496Z" fill="#1C274C"/>
<path d="M11.8333 6.41667C11.8333 8.97008 11.8333 10.2468 11.0401 11.0401C10.2468 11.8333 8.97008 11.8333 6.41667 11.8333C3.86322 11.8333 2.5865 11.8333 1.79325 11.0401C1 10.2468 1 8.97008 1 6.41667C1 3.86322 1 2.5865 1.79325 1.79325C2.5865 1 3.86322 1 6.41667 1C8.97008 1 10.2468 1 11.0401 1.79325C11.5675 2.3207 11.7443 3.06188 11.8035 4.25" stroke="#1C274C" stroke-width="0.96" stroke-linecap="round"/>
</svg>
