<svg id="hashtag" width="48" height="49" viewBox="0 0 48 49" fill="none" xmlns="http://www.w3.org/2000/svg">
<path d="M34.4476 12.4798L29.1377 16.5423L31.6544 22.747L35.9659 19.4484L38.8825 23.2607L33.5726 27.3231L37.6334 37.239L33.4581 40.4334L29.3973 30.5176L25.222 33.712L29.2828 43.6278L25.1529 46.7875L21.092 36.8717L17.0075 39.9967L14.0908 36.1844L19.1738 32.2956L16.6572 26.0908L12.5726 29.2158L9.69069 25.4489L14.7737 21.5601L10.6781 11.5988L14.808 8.43913L18.9036 18.4004L23.0789 15.2059L18.9833 5.24471L23.1586 2.05029L27.2542 12.0115L31.5657 8.71294L34.4476 12.4798ZM27.4791 25.9414L24.9624 19.7367L20.7871 22.9311L23.3038 29.1359L27.4791 25.9414Z" fill="black"/>
</svg>
