<svg width="22" height="22" viewBox="0 0 22 22" fill="none" xmlns="http://www.w3.org/2000/svg">
<path d="M3.08333 1.66667C2.30093 1.66667 1.66667 2.30093 1.66667 3.08333V4.91667C1.66667 5.69907 2.30093 6.33333 3.08333 6.33333H4.91667C5.69907 6.33333 6.33333 5.69907 6.33333 4.91667V3.08333C6.33333 2.30093 5.69907 1.66667 4.91667 1.66667H3.08333ZM3.08333 0.5H4.91667C6.3434 0.5 7.5 1.6566 7.5 3.08333V4.91667C7.5 6.3434 6.3434 7.5 4.91667 7.5H3.08333C1.6566 7.5 0.5 6.3434 0.5 4.91667V3.08333C0.5 1.6566 1.6566 0.5 3.08333 0.5ZM3.08333 14.5H4.91667C6.3434 14.5 7.5 15.6566 7.5 17.0833V18.9167C7.5 20.3434 6.3434 21.5 4.91667 21.5H3.08333C1.6566 21.5 0.5 20.3434 0.5 18.9167V17.0833C0.5 15.6566 1.6566 14.5 3.08333 14.5ZM3.08333 15.6667C2.30093 15.6667 1.66667 16.3009 1.66667 17.0833V18.9167C1.66667 19.6991 2.30093 20.3333 3.08333 20.3333H4.91667C5.69907 20.3333 6.33333 19.6991 6.33333 18.9167V17.0833C6.33333 16.3009 5.69907 15.6667 4.91667 15.6667H3.08333ZM17.0833 0.5H18.9167C20.3434 0.5 21.5 1.6566 21.5 3.08333V4.91667C21.5 6.3434 20.3434 7.5 18.9167 7.5H17.0833C15.6566 7.5 14.5 6.3434 14.5 4.91667V3.08333C14.5 1.6566 15.6566 0.5 17.0833 0.5ZM17.0833 1.66667C16.3009 1.66667 15.6667 2.30093 15.6667 3.08333V4.91667C15.6667 5.69907 16.3009 6.33333 17.0833 6.33333H18.9167C19.6991 6.33333 20.3333 5.69907 20.3333 4.91667V3.08333C20.3333 2.30093 19.6991 1.66667 18.9167 1.66667H17.0833ZM12.1667 20.3333V19.75C12.1667 19.4278 12.4278 19.1667 12.75 19.1667C13.0722 19.1667 13.3333 19.4278 13.3333 19.75V20.3333H13.9167C14.2388 20.3333 14.5 20.5945 14.5 20.9167C14.5 21.2388 14.2388 21.5 13.9167 21.5H11.5833C11.2612 21.5 11 21.2388 11 20.9167C11 20.5945 11.2612 20.3333 11.5833 20.3333H12.1667ZM12.1667 9.83333H13.3333V9.25C13.3333 8.92783 13.5945 8.66667 13.9167 8.66667C14.2388 8.66667 14.5 8.92783 14.5 9.25V10.4167C14.5 10.7388 14.2388 11 13.9167 11H10.4167C10.0945 11 9.83333 10.7388 9.83333 10.4167C9.83333 10.0945 10.0945 9.83333 10.4167 9.83333H11V8.66667H10.4167C10.0945 8.66667 9.83333 8.4055 9.83333 8.08333C9.83333 7.76117 10.0945 7.5 10.4167 7.5H11.5833C11.9055 7.5 12.1667 7.76117 12.1667 8.08333V9.83333ZM19.1667 11V11.5833C19.1667 11.9055 18.9055 12.1667 18.5833 12.1667C18.2612 12.1667 18 11.9055 18 11.5833V9.25C18 8.92783 18.2612 8.66667 18.5833 8.66667C18.9055 8.66667 19.1667 8.92783 19.1667 9.25V9.83333H20.3333V9.25C20.3333 8.92783 20.5945 8.66667 20.9167 8.66667C21.2388 8.66667 21.5 8.92783 21.5 9.25V10.4167C21.5 10.7388 21.2388 11 20.9167 11H19.1667ZM12.1667 13.3333H10.4167C10.0945 13.3333 9.83333 13.0722 9.83333 12.75C9.83333 12.4278 10.0945 12.1667 10.4167 12.1667H12.75C13.0722 12.1667 13.3333 12.4278 13.3333 12.75V15.0833C13.3333 15.4055 13.0722 15.6667 12.75 15.6667H9.25C8.92783 15.6667 8.66667 15.4055 8.66667 15.0833C8.66667 14.7612 8.92783 14.5 9.25 14.5H12.1667V13.3333ZM3.41667 2.83333H4.58333C4.9055 2.83333 5.16667 3.0945 5.16667 3.41667V4.58333C5.16667 4.9055 4.9055 5.16667 4.58333 5.16667H3.41667C3.0945 5.16667 2.83333 4.9055 2.83333 4.58333V3.41667C2.83333 3.0945 3.0945 2.83333 3.41667 2.83333ZM3.41667 16.8333H4.58333C4.9055 16.8333 5.16667 17.0945 5.16667 17.4167V18.5833C5.16667 18.9055 4.9055 19.1667 4.58333 19.1667H3.41667C3.0945 19.1667 2.83333 18.9055 2.83333 18.5833V17.4167C2.83333 17.0945 3.0945 16.8333 3.41667 16.8333ZM17.4167 2.83333H18.5833C18.9055 2.83333 19.1667 3.0945 19.1667 3.41667V4.58333C19.1667 4.9055 18.9055 5.16667 18.5833 5.16667H17.4167C17.0945 5.16667 16.8333 4.9055 16.8333 4.58333V3.41667C16.8333 3.0945 17.0945 2.83333 17.4167 2.83333ZM12.1667 2.83333V1.66667H9.83333V3.41667C9.83333 3.73883 9.57217 4 9.25 4C8.92783 4 8.66667 3.73883 8.66667 3.41667V1.08333C8.66667 0.761167 8.92783 0.5 9.25 0.5H12.75C13.0722 0.5 13.3333 0.761167 13.3333 1.08333V3.41667C13.3333 3.73883 13.0722 4 12.75 4H11.5833C11.2612 4 11 3.73883 11 3.41667C11 3.0945 11.2612 2.83333 11.5833 2.83333H12.1667ZM9.25 6.33333C8.92783 6.33333 8.66667 6.07217 8.66667 5.75C8.66667 5.42783 8.92783 5.16667 9.25 5.16667H12.75C13.0722 5.16667 13.3333 5.42783 13.3333 5.75C13.3333 6.07217 13.0722 6.33333 12.75 6.33333H9.25ZM9.83333 18V20.9167C9.83333 21.2388 9.57217 21.5 9.25 21.5C8.92783 21.5 8.66667 21.2388 8.66667 20.9167V17.4167C8.66667 17.0945 8.92783 16.8333 9.25 16.8333H12.75C13.0722 16.8333 13.3333 17.0945 13.3333 17.4167C13.3333 17.7388 13.0722 18 12.75 18H9.83333ZM7.5 11H8.08333C8.4055 11 8.66667 11.2612 8.66667 11.5833V12.75C8.66667 13.0722 8.4055 13.3333 8.08333 13.3333C7.76117 13.3333 7.5 13.0722 7.5 12.75V12.1667H6.91667C6.5945 12.1667 6.33333 11.9055 6.33333 11.5833V9.25C6.33333 8.92783 6.5945 8.66667 6.91667 8.66667H8.08333C8.4055 8.66667 8.66667 8.92783 8.66667 9.25C8.66667 9.57217 8.4055 9.83333 8.08333 9.83333H7.5V11ZM4 9.83333H3.41667C3.0945 9.83333 2.83333 9.57217 2.83333 9.25C2.83333 8.92783 3.0945 8.66667 3.41667 8.66667H4.58333C4.9055 8.66667 5.16667 8.92783 5.16667 9.25V12.75C5.16667 13.0722 4.9055 13.3333 4.58333 13.3333C4.26117 13.3333 4 13.0722 4 12.75V9.83333ZM15.6667 9.25C15.6667 8.92783 15.9278 8.66667 16.25 8.66667C16.5722 8.66667 16.8333 8.92783 16.8333 9.25V11.5833C16.8333 11.9055 16.5722 12.1667 16.25 12.1667C15.9278 12.1667 15.6667 11.9055 15.6667 11.5833V9.25ZM20.3333 13.3333V12.75C20.3333 12.4278 20.5945 12.1667 20.9167 12.1667C21.2388 12.1667 21.5 12.4278 21.5 12.75V13.9167C21.5 14.2388 21.2388 14.5 20.9167 14.5H17.4167C17.0945 14.5 16.8333 14.2388 16.8333 13.9167C16.8333 13.5945 17.0945 13.3333 17.4167 13.3333H20.3333ZM15.6667 15.6667H18.5833C18.9055 15.6667 19.1667 15.9278 19.1667 16.25C19.1667 16.5722 18.9055 16.8333 18.5833 16.8333H15.0833C14.7612 16.8333 14.5 16.5722 14.5 16.25V13.9167C14.5 13.5945 14.7612 13.3333 15.0833 13.3333C15.4055 13.3333 15.6667 13.5945 15.6667 13.9167V15.6667ZM20.3333 20.3333V16.25C20.3333 15.9278 20.5945 15.6667 20.9167 15.6667C21.2388 15.6667 21.5 15.9278 21.5 16.25V20.9167C21.5 21.2388 21.2388 21.5 20.9167 21.5H16.25C15.9278 21.5 15.6667 21.2388 15.6667 20.9167C15.6667 20.5945 15.9278 20.3333 16.25 20.3333H20.3333ZM15.0833 19.1667C14.7612 19.1667 14.5 18.9055 14.5 18.5833C14.5 18.2612 14.7612 18 15.0833 18H18.5833C18.9055 18 19.1667 18.2612 19.1667 18.5833C19.1667 18.9055 18.9055 19.1667 18.5833 19.1667H15.0833ZM1.66667 12.1667H2.25C2.57217 12.1667 2.83333 12.4278 2.83333 12.75C2.83333 13.0722 2.57217 13.3333 2.25 13.3333H1.08333C0.761167 13.3333 0.5 13.0722 0.5 12.75V9.25C0.5 8.92783 0.761167 8.66667 1.08333 8.66667C1.4055 8.66667 1.66667 8.92783 1.66667 9.25V12.1667Z" fill="black" stroke="black" stroke-width="0.00064"/>
</svg>
