<svg width="205" height="48" viewBox="0 0 205 48" fill="none" xmlns="http://www.w3.org/2000/svg">
<rect width="205" height="48" rx="14" fill="black"/>
<path d="M66.5299 15.9388V29H63.7136V18.3061H58.5095V29H55.6932V15.9388H66.5299ZM77.5 27.8776C76.5341 28.8163 75.2892 29.2857 73.7653 29.2857C72.2415 29.2857 70.9966 28.8163 70.0307 27.8776C69.0647 26.9388 68.5817 25.7551 68.5817 24.3265C68.5817 22.8844 69.0647 21.6939 70.0307 20.7551C70.9966 19.8163 72.2415 19.3469 73.7653 19.3469C75.2892 19.3469 76.5341 19.8163 77.5 20.7551C78.466 21.6939 78.949 22.8844 78.949 24.3265C78.949 25.7551 78.466 26.9388 77.5 27.8776ZM71.9898 26.3061C72.4524 26.8095 73.0443 27.0612 73.7653 27.0612C74.4864 27.0612 75.0783 26.8027 75.5409 26.2857C76.0034 25.7687 76.2347 25.1156 76.2347 24.3265C76.2347 23.5238 75.9966 22.8639 75.5204 22.3469C75.0579 21.8299 74.4728 21.5714 73.7653 21.5714C73.0443 21.5714 72.4524 21.8299 71.9898 22.3469C71.5273 22.8639 71.296 23.5238 71.296 24.3265C71.296 25.1293 71.5273 25.7891 71.9898 26.3061ZM89.7698 19.5918V29H87.1576V21.5918H83.4433V29H80.8106V19.5918H89.7698ZM97.6898 19.3469C98.9551 19.3469 99.9959 19.7891 100.812 20.6735C101.642 21.5578 102.057 22.7619 102.057 24.2857C102.057 25.7959 101.642 26.9932 100.812 27.8776C99.9959 28.7619 98.9551 29.2041 97.6898 29.2041C96.5197 29.2041 95.5469 28.8163 94.7714 28.0408V33.2857H92.1388V19.5918H94.4449L94.649 20.6531C95.4245 19.7823 96.4381 19.3469 97.6898 19.3469ZM96.9551 26.9796C97.6626 26.9796 98.2408 26.7347 98.6898 26.2449C99.1388 25.7415 99.3632 25.0884 99.3632 24.2857C99.3632 23.483 99.1388 22.8299 98.6898 22.3265C98.2408 21.8231 97.6626 21.5714 96.9551 21.5714C96.234 21.5714 95.649 21.8231 95.2 22.3265C94.751 22.8299 94.5265 23.483 94.5265 24.2857C94.5265 25.0748 94.751 25.7211 95.2 26.2245C95.649 26.7279 96.234 26.9796 96.9551 26.9796ZM112.324 27.8776C111.358 28.8163 110.113 29.2857 108.59 29.2857C107.066 29.2857 105.821 28.8163 104.855 27.8776C103.889 26.9388 103.406 25.7551 103.406 24.3265C103.406 22.8844 103.889 21.6939 104.855 20.7551C105.821 19.8163 107.066 19.3469 108.59 19.3469C110.113 19.3469 111.358 19.8163 112.324 20.7551C113.29 21.6939 113.773 22.8844 113.773 24.3265C113.773 25.7551 113.29 26.9388 112.324 27.8776ZM106.814 26.3061C107.277 26.8095 107.868 27.0612 108.59 27.0612C109.311 27.0612 109.902 26.8027 110.365 26.2857C110.828 25.7687 111.059 25.1156 111.059 24.3265C111.059 23.5238 110.821 22.8639 110.345 22.3469C109.882 21.8299 109.297 21.5714 108.59 21.5714C107.868 21.5714 107.277 21.8299 106.814 22.3469C106.351 22.8639 106.12 23.5238 106.12 24.3265C106.12 25.1293 106.351 25.7891 106.814 26.3061ZM120.517 29.2857C118.598 29.2857 117.197 28.5034 116.313 26.9388C115.619 25.8095 115.272 24.3605 115.272 22.5918C115.272 20.7279 115.707 19.2517 116.578 18.1633C117.462 17.0748 118.544 16.3673 119.823 16.0408C120.054 15.9728 120.367 15.898 120.762 15.8163C121.156 15.7211 121.462 15.6463 121.68 15.5918C121.911 15.5374 122.17 15.449 122.456 15.3265C122.755 15.2041 123.02 15.0612 123.251 14.898L124.476 16.551C124.136 16.8639 123.728 17.1088 123.251 17.2857C122.789 17.4626 122.251 17.6122 121.639 17.7347C121.027 17.8571 120.612 17.9524 120.394 18.0204C119.646 18.2653 119.027 18.7619 118.537 19.5102C118.061 20.2585 117.823 21.1497 117.823 22.1837C118.598 21.0408 119.666 20.4694 121.027 20.4694C122.415 20.4694 123.483 20.8912 124.231 21.7347C124.993 22.5646 125.374 23.5442 125.374 24.6735C125.374 25.966 124.945 27.0612 124.088 27.9592C123.231 28.8435 122.041 29.2857 120.517 29.2857ZM120.435 27.2449C121.115 27.2449 121.66 27.0136 122.068 26.551C122.49 26.0884 122.7 25.5034 122.7 24.7959C122.7 24.1293 122.483 23.5714 122.047 23.1224C121.612 22.6735 121.075 22.449 120.435 22.449C119.796 22.449 119.258 22.6735 118.823 23.1224C118.388 23.5714 118.17 24.1293 118.17 24.7959C118.17 25.5034 118.381 26.0884 118.802 26.551C119.224 27.0136 119.768 27.2449 120.435 27.2449ZM135.879 27.8776C134.913 28.8163 133.668 29.2857 132.144 29.2857C130.62 29.2857 129.376 28.8163 128.41 27.8776C127.444 26.9388 126.961 25.7551 126.961 24.3265C126.961 22.8844 127.444 21.6939 128.41 20.7551C129.376 19.8163 130.62 19.3469 132.144 19.3469C133.668 19.3469 134.913 19.8163 135.879 20.7551C136.845 21.6939 137.328 22.8844 137.328 24.3265C137.328 25.7551 136.845 26.9388 135.879 27.8776ZM130.369 26.3061C130.831 26.8095 131.423 27.0612 132.144 27.0612C132.865 27.0612 133.457 26.8027 133.92 26.2857C134.382 25.7687 134.614 25.1156 134.614 24.3265C134.614 23.5238 134.376 22.8639 133.899 22.3469C133.437 21.8299 132.852 21.5714 132.144 21.5714C131.423 21.5714 130.831 21.8299 130.369 22.3469C129.906 22.8639 129.675 23.5238 129.675 24.3265C129.675 25.1293 129.906 25.7891 130.369 26.3061ZM145.741 23.8163C146.502 23.9252 147.101 24.1973 147.536 24.6327C147.972 25.068 148.19 25.619 148.19 26.2857C148.19 27.1156 147.849 27.7755 147.169 28.2653C146.502 28.7551 145.604 29 144.475 29H139.19V19.5918H144.047C145.053 19.5918 145.849 19.7959 146.434 20.2041C147.019 20.5986 147.312 21.1497 147.312 21.8571C147.312 22.3469 147.169 22.7619 146.883 23.102C146.611 23.4286 146.23 23.6667 145.741 23.8163ZM144.904 22.1837C144.904 21.517 144.482 21.1837 143.639 21.1837H141.618V23.2245H143.577C143.985 23.2245 144.305 23.1361 144.536 22.9592C144.781 22.7687 144.904 22.5102 144.904 22.1837ZM143.945 27.4082C144.434 27.4082 144.829 27.2993 145.128 27.0816C145.441 26.8639 145.598 26.5374 145.598 26.102C145.598 25.6803 145.441 25.3537 145.128 25.1224C144.829 24.8776 144.421 24.7551 143.904 24.7551H141.618V27.4082H143.945ZM153.337 29.2041C152.398 29.2041 151.616 28.9388 150.99 28.4082C150.364 27.8639 150.051 27.1633 150.051 26.3061C150.051 25.1497 150.609 24.2721 151.724 23.6735C152.854 23.0612 154.323 23.0544 156.133 23.6531L156.439 23.7551V23.1633C156.439 21.9796 155.752 21.3878 154.377 21.3878C153.52 21.3878 152.772 21.6463 152.133 22.1633L151.051 20.4286C152.003 19.7075 153.201 19.3469 154.643 19.3469C157.595 19.3469 159.071 20.7483 159.071 23.551V29H156.786L156.439 27.8571C155.772 28.7551 154.738 29.2041 153.337 29.2041ZM154.316 27.3673C154.901 27.3673 155.398 27.1905 155.806 26.8367C156.228 26.4694 156.439 25.9932 156.439 25.4082V25.1837L156.214 25.102C155.071 24.7619 154.221 24.7007 153.663 24.9184C153.105 25.1361 152.826 25.5238 152.826 26.0816C152.826 26.4626 152.962 26.7755 153.235 27.0204C153.507 27.2517 153.867 27.3673 154.316 27.3673ZM168.93 19.5918V21.6939H166.113V29H163.481V21.6939H160.542V19.5918H168.93ZM176.089 22.8367C177.082 22.8367 177.926 23.1224 178.62 23.6939C179.327 24.2653 179.681 25.0136 179.681 25.9388C179.681 26.8367 179.327 27.5714 178.62 28.1429C177.926 28.7143 177.082 29 176.089 29H170.518V19.5918H173.109V22.8367H176.089ZM175.314 27.2245C175.871 27.2381 176.3 27.1293 176.599 26.898C176.912 26.6667 177.069 26.3469 177.069 25.9388C177.069 25.517 176.912 25.1905 176.599 24.9592C176.3 24.7279 175.871 24.6122 175.314 24.6122L173.109 24.6327V27.2245H175.314Z" fill="white"/>
<rect x="16" y="18" width="12" height="12" rx="6" fill="white"/>
</svg>
